# xmcd
#
# Track frame offsets: 
#        150
#        33870
#        55979
#        71013
#        86587
#        110552
#        123228
#        138873
#        149281
#        161561
#
# Disc length: 2307 seconds
#
# Revision: 0
# Processed by: cddbd v1.5.2PL0 Copyright (c) Steve Scherf et al.
# Submitted via: ExactAudioCopy v0.99pb5
#
DISCID=8709010a
DTITLE=Ray Charles - Ray Charles [Direct Source] Disc 1
DYEAR=2005
DGENRE=Soul
TTITLE0=Georgia On My Mind (Live)
TTITLE1=What's I Say (Live)
TTITLE2=Let's Go Get Stoned (Live)
TTITLE3=You Are My Sunshine (Live)
TTITLE4=Night Time Is The Right Time (Live)
TTITLE5=Heartbreaker
TTITLE6=I Won't Leave Till I Get What I Came For (Live)
TTITLE7=Ain't That Fine
TTITLE8=Going Down Slow
TTITLE9=Let The Good Times Roll (Live)
EXTD=
EXTT0=
EXTT1=
EXTT2=
EXTT3=
EXTT4=
EXTT5=
EXTT6=
EXTT7=
EXTT8=
EXTT9=
PLAYORDER=
